<?xml version="1.0" encoding="utf-8"?>
<!-- Generator: Adobe Illustrator 25.0.0, SVG Export Plug-In . SVG Version: 6.00 Build 0)  -->
<svg version="1.1" id="Layer_1" xmlns="http://www.w3.org/2000/svg" xmlns:xlink="http://www.w3.org/1999/xlink" x="0px" y="0px"
	 viewBox="0 0 735 852" style="enable-background:new 0 0 735 852;" xml:space="preserve">
<style type="text/css">
	.st0{fill:#E3E3FF;}
	.st1{clip-path:url(#SVGID_2_);fill:#D9D9FF;}
	.st2{fill:#5A459B;}
	.st3{fill:#E6B35A;}
	.st4{opacity:0.9;fill:#FFFFFF;enable-background:new    ;}
	.st5{opacity:0.9;fill:#3D3D3D;enable-background:new    ;}
	.st6{fill:#3D3D3D;}
	.st7{enable-background:new    ;}
</style>
<path class="st0" d="M715.1,226.8L366.9,16l-347,210.8v401.5L367.5,829l347.6-200.7V226.8z"/>
<g>
	<g>
		<g>
			<defs>
				<polygon id="SVGID_1_" points="715.1,226.8 366.9,16 19.9,226.8 19.9,628.3 367.5,829 715.1,628.3 				"/>
			</defs>
			<clipPath id="SVGID_2_">
				<use xlink:href="#SVGID_1_"  style="overflow:visible;"/>
			</clipPath>
			<path class="st1" d="M532.4,820.7L836.8,65.8H635L426.8,553.6l-148-487.8H123.7l-159,487.8l-112.1-222.3l-101.4,312.5l103,176.8
				H52.7l143.6-437.5l137,437.5h199.1V820.7z"/>
		</g>
	</g>
</g>
<path class="st2" d="M734.9,637.4V213.1l-29.3-16.9L427.8,35.8L367.5,1l-60.3,34.8L29.4,196.2L0.1,213.1v424.2l29.3,16.9
	l281.3,162.4l56.9,32.8l56.9-32.8l281.3-162.4L734.9,637.4z M29.4,621.5V231l50-28.9L367.5,35.8l0,0l287.2,165.8l50.9,29.4v390.5
	L367.5,816.7L29.4,621.5z"/>
<path class="st3" d="M367,633.9c0.3-0.3,0.6-0.6,0.9-0.9h-0.3C367.5,633.3,367.3,633.6,367,633.9z"/>
<path class="st4" d="M105.5,343.9L105.5,343.9C103.7,343.7,104.9,343.8,105.5,343.9z"/>
<path class="st4" d="M105.5,343.9c-1.7-0.1-1,0-0.4,0h0.9h-0.1H105.5C105.9,343.9,106,344,105.5,343.9z"/>
<g>
	<path class="st5" d="M565.7,521.5c2,0.1,4.7-0.4,5.7-3.4c0.4-1.3-0.2-3-0.7-3.5c-0.5-0.5-1.2-0.8-2.1-0.8s-2.1,0.4-3.3,1.3
		c-1.5,1.2-1.7,3-1.4,4.4C564.2,520.6,564.8,521.3,565.7,521.5z"/>
	<path class="st5" d="M645.9,527.6c-0.1-0.2-0.3-0.3-0.4-0.3l-3.6-0.2c-1.6,0-3.1,0.1-4.7,0.4c-0.6,0.2-1.2,0.4-1.7,0.8
		c-0.5,0.4-0.9,0.8-1.2,1c-0.4,0.5-0.8,1-1.1,1.7c-0.4,0.8-0.8,1.3-0.9,1.9c-0.2,0.4-0.5,1.2-1,2.4c-0.5,1.2-0.8,2-1.1,2.7
		c-2,4.7-4.7,9.1-7.9,13c-3.3,4.2-5.9,6.3-7.9,6.2l-0.1,0c-0.8-0.1-1.1-1.1-1.1-2.9c0.2-4,1.5-8.8,4.2-14.4
		c2.6-5.6,5.2-9.5,7.5-11.7c0.4-0.4,0.7-0.8,0.7-1.2c0,0,0,0,0-0.1c0-0.3-0.3-0.7-0.7-0.7c-3-0.1-5.5,0.2-7.3,0.9
		c-1.9,0.8-3.7,2.6-5.4,5.4c-1.5,2.4-3,5.5-4.3,9.3c0,0,0,0,0,0.1c-0.2,0.3-0.4,0.7-0.7,1.2c-0.8,1.3-1.8,2.9-2.9,4.7
		c-0.9,1.5-1.9,3-3,4.4c-1,1.3-2.1,2.4-3.4,3.3c-1.6,1.3-2.5,1.5-3,1.5l-0.1,0c-0.5-0.1-1.1-0.3-1-1.9c0.1-2.4,1.5-6.9,4.3-13.7
		c1.3-3.2,2-5.2,2.4-6.3c0.3-1.1,0.5-2.2,0.6-3.3c0.2-3.5-1.5-5.3-5-5.4c-4.3-0.2-8.8,1.6-13.2,5.4c-0.1,0.1-0.2,0.1-0.3,0.1
		c-0.2-0.1-0.3-0.3-0.3-0.4c0.3-0.8,0.4-1.5,0.5-2.4c0.1-0.8-0.2-1.5-0.9-2.1c-0.6-0.5-1.9-0.8-4-0.9l-3.6-0.2c-0.1,0-0.2,0-0.2,0.1
		c-0.2,0.1-0.2,0.3-0.1,0.4c0.2,0.4,0.2,0.8,0.2,1.3c-0.1,2.5-1.3,6.9-3.6,13.1l-0.5,0.8c-0.3,0.2-0.6,0.7-1.4,2.1
		c-0.8,1.3-1.8,2.9-3,4.7c-1.1,1.9-2.1,3.3-3,4.5c-0.9,1.3-2.1,2.3-3.4,3.3c-1.7,1.3-2.5,1.4-3,1.4l-0.1,0c-0.3,0-1.2-0.1-1.1-2.4
		c0.1-1.8,0.6-4,1.6-6.8s2-5.1,2.8-6.7c0.8-1.6,2-3.9,3.7-7.3c1.6-3.2,2.9-5.1,3.8-5.8c0.1-0.1,0.1-0.2,0.1-0.3
		c0-0.2-0.2-0.3-0.3-0.3l-5.1-0.3c-2.6-0.1-5,1.8-7.2,5.5c-1.9,3.3-3.5,6.6-4.8,10.1c0,0.1,0,0.1-0.1,0.2
		c-5.5,10.4-9.9,15.7-13.1,15.6l-0.1,0c-0.3,0-1-0.1-0.9-2c0.1-1.5,0.5-3.5,1.4-6.1c0.3-1,0.8-2.3,1.4-3.8c0.6-1.5,1-2.6,1.4-3.5
		c0.3-0.8,0.8-1.9,1.4-3.3c0.6-1.3,1-2.5,1.4-3.5c0.5-1.1,0.8-2.4,0.8-3.5c0.1-3.3-1.5-5.1-5-5.2c-1.9,0-3.6,0.2-5.3,0.9
		c-1.2,0.4-2.3,1-3.3,1.6c-0.2,0.1-0.3,0.1-0.5-0.1c-0.1-0.2-0.1-0.3,0.1-0.5c6.4-7.5,11.2-14.3,14.2-20.2c1.7-3.4,2.5-6.1,2.6-8.2
		c0.1-3.1-1.3-4.8-4.4-4.9c-2.9-0.1-5.7,1.1-8.4,3.5c-2.9,2.7-5.2,5.7-7.2,9.1c-2.5,4.3-4.7,8.8-6.6,13.4
		c-2.2,5.3-5.1,12.6-8.3,21.9c-3.2,9.3-5.8,16.1-7.5,20.3c0,0.1,0,0.1,0,0.2c0,0.2,0.2,0.3,0.3,0.3l8.5,0.4l0.1-0.3
		c0.6-1.9,1.2-3.5,1.7-5.1c0.5-1.4,1.2-3.4,1.9-5.6c0.8-2.3,1.4-4.2,2-5.8c0.7-1.6,1.5-3.5,2.6-5.6c1-2,2.3-4,3.9-5.6
		c1.4-1.4,3-2.6,4.7-3.5c2-1,3-1.2,3.4-1.2l0.2,0c0.5,0.1,1,0.3,1,1.6c0,0.8-0.5,2.4-1.4,4.6c-4,8.9-6,16-6.3,20.9
		c-0.2,4.5,1.5,6.7,5.1,6.9c4,0.2,8.9-3.8,14.7-12.3c0.1-0.2,0.3-0.3,0.4-0.2c0.2,0.1,0.3,0.3,0.2,0.4c-0.2,1-0.2,1.9-0.3,2.9
		c-0.2,4.8,1.3,7.5,4.4,7.8c0.2,0,0.3,0,0.4,0c1.9,0.1,4-0.8,6.4-2.8c2.4-1.9,4.5-4.1,6.3-6.6c0.3-0.4,0.6-0.8,0.9-1.3
		c-1.8,4.6-2.7,7.3-2.7,8.1l0,0.3l8.8,0.4l0.1-0.3c0.1-0.3,0.6-1.9,0.9-3.2c0.6-1.9,1.1-3.7,1.7-5.5c0.5-1.7,1.3-3.8,2.2-6.3
		c0.8-2.3,1.8-4.5,3-6.7c1.1-1.9,2.2-3.8,3.5-5.6c1-1.7,2.5-3,4.1-4.1c1.3-0.8,2.8-1.3,4.3-1.3c1.3,0,1.9,0.6,1.8,1.7
		c0,0.6-0.2,1.1-0.4,1.7c-4.8,12-7.2,20.1-7.4,24.3c-0.2,4.3,1.5,6.5,5.1,6.7c1.9,0.1,4-0.8,6.4-2.8c2.4-1.9,4.6-4.1,6.3-6.6
		c0.6-0.8,1.2-1.7,1.9-2.6c0.1-0.2,0.3-0.3,0.4-0.2c0.2,0.1,0.3,0.3,0.2,0.4c-0.1,0.5-0.2,1-0.2,1.4c-0.2,2.6,0.2,4.7,1.2,6.2
		c0.9,1.4,2.3,2.3,3.9,2.3c1.3,0.1,2.7-0.1,4-0.4c1.2-0.3,2.8-1.4,4.9-3.2c1.6-1.4,3.1-3,4.6-4.7c0.1-0.1,0.3-0.2,0.3-0.1
		c0.2,0.1,0.3,0.3,0.2,0.4l-3.3,8.5c0,0.1-0.1,0.2-0.3,0.2c-5,0.8-12.1,0.3-16.5,2.9l-0.1,0c-0.8,0.3-2.2,1.4-3,2.6
		c-0.8,1.1-1.9,2.6-2,4c-0.1,2.4,0.4,4.5,2.7,6c1.8,1.1,3.3,1.4,5.6,1.7c0.4,0.1,0.8,0.1,1.3,0.1c3,0.1,6-0.6,8.7-2
		c2.9-1.4,5.4-3.4,7.4-6c1.6-2.1,3-4.5,4.1-7c0.1-0.3,0.2-0.5,0.3-0.7c0-0.1,0.1-0.1,0.1-0.2c0-0.1,0-0.1,0.1-0.2
		c0.1-0.3,0.3-0.5,0.3-0.8c0.3-0.6,0.5-1.2,0.7-1.8c0.1-0.3,0.2-0.4,0.3-0.6c0-0.1,0-0.2,0-0.3c0.5-1.3,1.1-2.9,1.8-4.8
		c0.9-2.5,1.5-4.2,1.8-5c0.3-0.7,1-2.6,2.1-5.8c1.1-3.1,2.5-6.7,4.2-10.5c2-4.5,3.8-7.3,5.6-8.4l0.1-0.1
		C645.8,528,646,527.7,645.9,527.6z M525.6,529.2c-0.1,0.1-0.3,0.2-0.4,0.1s-0.3-0.3-0.2-0.4c3-7.2,5.9-13.7,8.8-19.4
		c4.2-8.2,6.7-9.9,8-9.8l0.1,0c0.2,0,0.7,0.1,0.7,1.5c-0.1,1.2-0.9,3.7-2.6,7.5C537.1,514.1,532.3,521,525.6,529.2z M618.6,568.8
		c-3.1,6.5-6.6,9.7-10.4,9.6c-1,0-1.9-0.4-2.6-1.1c-0.8-0.8-1.6-1.8-1.6-2.8c0.1-1.4,0.3-2.5,0.7-3.2c0,0,0-0.1,0.1-0.1
		c2.1-1.8,5.8-2,8.3-2.3c1.8-0.2,3.5-0.3,5.3-0.5c0.1,0,0.2,0,0.2,0C618.7,568.5,618.7,568.6,618.6,568.8z"/>
	<path class="st5" d="M476.8,564.1c11.2,1.5,23.2,0.1,27.9-12.9c3.1-8.3-1.7-15.2-5.9-22c0,0-0.1-0.1-0.1-0.2
		c-0.1-0.8-4.9-6.3-6.1-8.3c0,0,0,0-0.1-0.1c-0.7-0.6-1.1-3.3-1.3-4.7c-0.1-0.6,0-1.3,0.2-1.9c2-6.4,3.2-11.1,11.7-8.8
		c6.1,1.7,1.9,10.5,5.2,11.7l0.1,0c2,0.4,6.4-4,7.2-5.6c2.9-6.1-9.7-11.3-13.6-11.5c-8-0.4-13.6,3.4-17.6,10.1
		c-7.2,12.5,2.8,22.3,8.4,31.9c4.3,7.3,3.4,13.3-3.3,18.5c-7.4,5.7-14.3-3.9-14.6-10.2c-0.2-5.7,0.3-9.7-5.2-3
		C464.7,553.7,468.3,562.9,476.8,564.1z"/>
</g>
<g>
	<path class="st6" d="M502.8,464.9l15.4-39h44.5l-21.1-59.1L568,300l75.7,200.9h-55.8l-12.9-36H502.8z"/>
	<path class="st2" d="M455.2,500.8l81-200.9h-53.7l-55.4,129.8l-39.4-129.8h-41.3l-42.3,129.8l-29.8-59.2l-27,83.2l27.4,47h52.8
		l38.2-116.4l36.5,116.5H455.2z"/>
	<path class="st6" d="M161.1,431.9h33.1c10,0,18.9-1.1,26.8-3.4l8.6-26.4l23.9-73.7c-1.8-2.9-3.9-5.6-6.2-8.2
		c-12.3-13.6-30.2-20.4-53.9-20.4h-83.2v200.9h51v-68.8L161.1,431.9L161.1,431.9z M204.9,346.2c4.8,4.8,7.2,11.3,7.2,19.4
		c0,8.2-2.1,14.6-6.3,19.4c-4.6,5.3-13.1,8-25.5,8h-19.1v-54h19.3C191.9,338.9,200.1,341.3,204.9,346.2z"/>
</g>
<g class="st7">
	<path class="st6" d="M372.3,806.8l-10-9.3l2-1.1l5.6,5.5l2.1,2c0-0.1-0.3-1-0.8-2.7l-2-7.7l2-1.1l5.5,5.6l1.8,1.8l-0.6-2.6
		l-1.8-7.7l1.9-1.1l3,13.4l-2,1.1l-5.7-5.7l-1.5-1.7l2.7,10L372.3,806.8z"/>
	<path class="st6" d="M388.1,797.8l-10-9.3l2-1.1l5.6,5.5l2.1,2c0-0.1-0.3-1-0.8-2.7l-2-7.7l2-1.1l5.5,5.6l1.8,1.8l-0.6-2.6
		l-1.8-7.7l1.9-1.1l3,13.4l-2,1.1l-5.7-5.7l-1.5-1.7l2.7,10L388.1,797.8z"/>
	<path class="st6" d="M403.8,788.7l-10-9.3l2-1.1l5.6,5.5l2.1,2c0-0.1-0.3-1-0.8-2.7l-2-7.7l2-1.1l5.5,5.6l1.8,1.8l-0.6-2.6
		l-1.8-7.7l1.9-1.1l3,13.4l-2,1.1l-5.7-5.7l-1.5-1.7l2.7,10L403.8,788.7z"/>
	<path class="st6" d="M416.8,781.2l-1.3-2.2l2.2-1.3l1.3,2.2L416.8,781.2z"/>
	<path class="st6" d="M424.8,782.3l-9-15.7l1.7-1l0.8,1.5c0.1-0.8,0.3-1.5,0.7-2.1c0.4-0.6,0.9-1.1,1.6-1.5c1-0.6,2-0.8,3-0.7
		c1,0.1,2,0.5,2.9,1.1c0.9,0.7,1.7,1.6,2.3,2.7c0.7,1.2,1.1,2.3,1.2,3.5c0.1,1.2-0.1,2.2-0.6,3.2c-0.5,1-1.2,1.7-2.1,2.2
		c-0.6,0.4-1.3,0.6-2,0.6s-1.3-0.1-1.8-0.3l3.2,5.5L424.8,782.3z M420.9,771.4c0.8,1.5,1.8,2.4,2.7,2.7c1,0.4,1.9,0.3,2.7-0.2
		c0.9-0.5,1.4-1.3,1.6-2.3c0.2-1.1-0.1-2.4-1-3.9c-0.8-1.4-1.8-2.4-2.8-2.7c-1-0.4-1.9-0.3-2.7,0.1c-0.8,0.5-1.3,1.3-1.5,2.4
		C419.7,768.7,420,769.9,420.9,771.4z"/>
	<path class="st6" d="M440.1,762.9l2.1-0.9c0.4,1.3,0.3,2.6-0.2,3.7c-0.5,1.1-1.4,2.1-2.7,2.8c-1.7,1-3.3,1.2-4.8,0.7
		c-1.6-0.5-2.9-1.6-3.9-3.5c-1.1-1.9-1.5-3.7-1.1-5.3c0.4-1.6,1.3-2.9,2.9-3.8c1.5-0.9,3-1.1,4.6-0.6c1.6,0.5,2.9,1.7,3.9,3.5
		c0.1,0.1,0.2,0.3,0.3,0.5l-8.4,4.9c0.8,1.2,1.7,2,2.7,2.2c1,0.3,2,0.2,2.9-0.4c0.7-0.4,1.2-0.9,1.5-1.6
		C440.3,764.7,440.3,763.9,440.1,762.9z M432,763.4l6.3-3.6c-0.6-0.9-1.3-1.5-2-1.7c-1-0.4-2-0.3-3,0.3c-0.9,0.5-1.5,1.2-1.7,2.2
		C431.4,761.4,431.5,762.4,432,763.4z"/>
	<path class="st6" d="M454,759.8l-0.8-1.4c-0.1,1.5-0.8,2.7-2.2,3.5c-0.9,0.5-1.9,0.7-2.9,0.7s-2-0.4-3-1.1
		c-0.9-0.7-1.7-1.6-2.4-2.7c-0.7-1.1-1.1-2.3-1.2-3.4c-0.2-1.1,0-2.2,0.5-3.1c0.5-0.9,1.2-1.7,2.1-2.2c0.7-0.4,1.4-0.6,2.1-0.6
		c0.7,0,1.3,0.1,1.9,0.4l-3.2-5.6l1.9-1.1l9,15.6L454,759.8z M444.6,757.6c0.8,1.5,1.8,2.4,2.8,2.7c1,0.4,2,0.3,2.8-0.2
		c0.8-0.5,1.4-1.2,1.5-2.3c0.2-1-0.1-2.2-0.9-3.6c-0.9-1.5-1.8-2.5-2.9-2.9c-1-0.4-2-0.3-2.8,0.2c-0.9,0.5-1.4,1.2-1.5,2.3
		C443.4,754.9,443.8,756.1,444.6,757.6z"/>
	<path class="st6" d="M458.7,757l-6.5-11.3l1.7-1l1,1.7c0-1.1,0.1-1.8,0.3-2.3c0.2-0.5,0.6-0.8,1-1.1c0.6-0.4,1.4-0.5,2.3-0.5
		l0.4,2.2c-0.6,0-1.2,0.1-1.6,0.4c-0.4,0.2-0.7,0.6-0.9,1c-0.2,0.4-0.2,0.9-0.1,1.5c0.2,0.8,0.5,1.6,1,2.4l3.4,5.9L458.7,757z"/>
	<path class="st6" d="M462.1,747.6c-1.2-2.1-1.5-4-0.9-5.7c0.5-1.4,1.4-2.5,2.8-3.3c1.6-0.9,3.1-1.1,4.7-0.7
		c1.6,0.4,2.9,1.6,3.9,3.4c0.8,1.5,1.3,2.7,1.3,3.8c0,1.1-0.2,2.1-0.8,3c-0.6,0.9-1.3,1.7-2.3,2.3c-1.6,0.9-3.2,1.1-4.7,0.7
		C464.5,750.7,463.2,749.5,462.1,747.6z M464,746.4c0.8,1.4,1.8,2.4,2.8,2.7c1,0.4,2.1,0.3,3-0.3c1-0.5,1.5-1.4,1.8-2.5
		c0.2-1.1-0.1-2.4-1-3.9c-0.8-1.4-1.7-2.3-2.8-2.6c-1.1-0.4-2-0.3-3,0.3c-1,0.6-1.5,1.4-1.8,2.5S463.2,745,464,746.4z"/>
	<path class="st6" d="M483.2,737.4l2-0.8c0.5,1.4,0.6,2.7,0.2,4c-0.4,1.2-1.3,2.2-2.5,2.9c-1.5,0.9-3.1,1.1-4.6,0.6
		c-1.5-0.5-2.8-1.7-3.9-3.5c-0.7-1.2-1.1-2.4-1.2-3.6c-0.1-1.1,0.1-2.2,0.7-3.1c0.6-0.9,1.3-1.7,2.3-2.2c1.2-0.7,2.4-1,3.6-0.8
		c1.1,0.2,2.1,0.8,3,1.8L481,734c-0.6-0.7-1.3-1-1.9-1.2s-1.3,0-2,0.4c-1,0.6-1.6,1.4-1.8,2.4c-0.2,1,0.1,2.3,1,3.8
		c0.9,1.5,1.8,2.5,2.8,2.8c1,0.4,1.9,0.3,2.9-0.3c0.8-0.4,1.2-1,1.5-1.8C483.7,739.4,483.6,738.5,483.2,737.4z"/>
	<path class="st6" d="M486.4,736.6l1.7-1.4c0.5,0.7,1.2,1.1,1.9,1.2c0.7,0.1,1.5-0.1,2.4-0.6c0.9-0.5,1.4-1.1,1.7-1.7
		c0.2-0.6,0.2-1.1-0.1-1.6c-0.2-0.4-0.6-0.7-1.2-0.7c-0.4,0-1.1,0.1-2.3,0.5c-1.6,0.5-2.8,0.7-3.5,0.8c-0.7,0.1-1.3-0.1-1.9-0.4
		c-0.5-0.3-1-0.7-1.3-1.3c-0.3-0.5-0.4-1-0.5-1.6s0.1-1.1,0.3-1.6c0.2-0.4,0.5-0.8,0.9-1.3c0.4-0.4,0.9-0.8,1.5-1.2
		c0.9-0.5,1.7-0.8,2.6-1c0.8-0.1,1.5-0.1,2.1,0.2c0.6,0.3,1.1,0.7,1.7,1.4l-1.7,1.3c-0.4-0.5-0.9-0.8-1.5-0.9
		c-0.6-0.1-1.3,0.1-2,0.5c-0.9,0.5-1.4,1-1.6,1.5c-0.2,0.5-0.2,1,0,1.3c0.1,0.2,0.4,0.4,0.6,0.5c0.3,0.1,0.6,0.1,1,0.1
		c0.2,0,0.9-0.2,2-0.5c1.6-0.4,2.7-0.7,3.4-0.7c0.7-0.1,1.3,0,1.8,0.3c0.6,0.3,1,0.7,1.4,1.4c0.4,0.6,0.5,1.3,0.5,2.1
		c0,0.8-0.3,1.5-0.9,2.2s-1.2,1.3-2.1,1.8c-1.5,0.8-2.8,1.2-3.9,1C488.3,738.3,487.3,737.7,486.4,736.6z"/>
	<path class="st6" d="M492.3,719.8l-1.3-2.2l1.9-1.1l1.3,2.2L492.3,719.8z M500,733.3l-6.5-11.3l1.9-1.1l6.5,11.3L500,733.3z"/>
	<path class="st6" d="M504.8,730.5l-9-15.6l1.9-1.1l9,15.6L504.8,730.5z"/>
	<path class="st6" d="M512.8,725.9L502,717l2-1.2l6.3,5.4c0.7,0.6,1.4,1.2,2,1.9c-0.2-0.7-0.3-1.5-0.5-2.6l-1.5-8.4l2-1.1l2.2,13.8
		L512.8,725.9z"/>
	<path class="st6" d="M527.2,715.7c-0.4,1-0.8,1.8-1.3,2.5c-0.5,0.6-1.1,1.2-1.9,1.6c-1.2,0.7-2.4,1-3.4,0.7s-1.8-0.8-2.3-1.8
		c-0.3-0.6-0.5-1.1-0.5-1.7s0.1-1.2,0.4-1.7s0.6-1,1-1.4c0.3-0.3,0.8-0.7,1.5-1.3c1.4-1.1,2.5-2,3-2.6c-0.1-0.3-0.2-0.4-0.3-0.5
		c-0.5-0.8-0.9-1.2-1.5-1.3c-0.7-0.2-1.6,0.1-2.6,0.6c-0.9,0.5-1.5,1.1-1.7,1.6c-0.2,0.6-0.2,1.3,0,2.2l-2,0.8
		c-0.3-0.9-0.4-1.7-0.3-2.4c0.1-0.7,0.5-1.4,1-2.1s1.4-1.3,2.3-1.9c1-0.6,1.8-0.9,2.6-1c0.7-0.1,1.3-0.1,1.8,0.1
		c0.5,0.2,0.9,0.5,1.3,1c0.3,0.3,0.6,0.9,1.1,1.7l1.5,2.6c1,1.8,1.7,2.9,2.1,3.3c0.4,0.4,0.8,0.8,1.3,1.1l-2,1.2
		C527.9,716.6,527.5,716.2,527.2,715.7z M524.6,711.5c-0.5,0.7-1.4,1.5-2.7,2.5c-0.7,0.6-1.2,1-1.5,1.3c-0.2,0.3-0.4,0.7-0.4,1.1
		c0,0.4,0.1,0.7,0.3,1.1c0.3,0.5,0.7,0.8,1.3,0.9c0.6,0.1,1.2,0,2-0.5c0.7-0.4,1.3-1,1.7-1.6c0.4-0.7,0.6-1.3,0.5-2.1
		c0-0.6-0.3-1.3-0.8-2.1L524.6,711.5z"/>
	<path class="st6" d="M533.3,714.1l-1.3-2.2l2.2-1.3l1.3,2.2L533.3,714.1z"/>
	<path class="st6" d="M543.8,702.5l2-0.8c0.5,1.4,0.6,2.7,0.2,4s-1.3,2.2-2.5,2.9c-1.5,0.9-3.1,1.1-4.6,0.6
		c-1.5-0.5-2.8-1.6-3.9-3.5c-0.7-1.2-1.1-2.4-1.2-3.6c-0.1-1.2,0.1-2.2,0.7-3.1c0.6-0.9,1.3-1.7,2.3-2.2c1.2-0.7,2.4-1,3.6-0.8
		c1.1,0.2,2.1,0.8,3,1.8l-1.7,1.4c-0.6-0.7-1.3-1-1.9-1.2c-0.7-0.1-1.3,0-2,0.4c-1,0.6-1.6,1.4-1.8,2.4c-0.2,1,0.1,2.3,1,3.8
		c0.9,1.5,1.8,2.5,2.8,2.8c1,0.4,1.9,0.3,2.9-0.3c0.8-0.4,1.2-1,1.5-1.8C544.3,704.4,544.2,703.5,543.8,702.5z"/>
	<path class="st6" d="M545.7,699.4c-1.2-2.1-1.5-4-0.9-5.7c0.5-1.4,1.4-2.5,2.8-3.3c1.6-0.9,3.1-1.1,4.7-0.7
		c1.6,0.5,2.9,1.6,3.9,3.4c0.8,1.5,1.3,2.7,1.3,3.8c0,1.1-0.2,2.1-0.8,3c-0.6,0.9-1.3,1.7-2.3,2.3c-1.6,0.9-3.2,1.1-4.7,0.7
		C548.2,702.5,546.8,701.3,545.7,699.4z M547.7,698.2c0.8,1.4,1.8,2.4,2.8,2.7c1,0.4,2.1,0.3,3-0.3c1-0.5,1.5-1.4,1.8-2.5
		s-0.1-2.4-1-3.9c-0.8-1.4-1.7-2.3-2.8-2.6c-1.1-0.4-2-0.3-3,0.3c-1,0.6-1.5,1.4-1.8,2.5C546.6,695.5,546.9,696.8,547.7,698.2z"/>
	<path class="st6" d="M561.9,697.6l-6.5-11.3l1.7-1l0.9,1.6c0-0.8,0.3-1.5,0.6-2.2c0.4-0.7,1-1.2,1.7-1.7c0.8-0.5,1.6-0.7,2.4-0.7
		c0.7,0,1.4,0.3,2,0.8c0.1-1.8,0.9-3.2,2.4-4c1.1-0.6,2.2-0.8,3.1-0.6c1,0.3,1.8,1.1,2.6,2.4l4.5,7.8l-1.9,1.1l-4.1-7.1
		c-0.4-0.8-0.8-1.3-1.1-1.6c-0.3-0.3-0.7-0.4-1.1-0.4c-0.4,0-0.9,0.1-1.3,0.4c-0.8,0.5-1.3,1.1-1.5,1.9c-0.2,0.8,0,1.8,0.7,3
		l3.8,6.6l-1.9,1.1l-4.2-7.4c-0.5-0.9-1-1.4-1.6-1.6c-0.6-0.2-1.2-0.2-1.9,0.2c-0.5,0.3-1,0.7-1.3,1.3c-0.3,0.5-0.4,1.2-0.3,1.8
		c0.1,0.7,0.5,1.5,1.1,2.5l3.4,5.9L561.9,697.6z"/>
</g>
</svg>
